# xmcd
#
# Track frame offsets:
#  182
#  20720
#  34732
#  52907
#  90995
#  116570
#  132870
#  151307
#  172520
#  194545
#  213070
#
# Disc length: 3137 seconds
#
# Revision: 3
# Processed by: cddbd v1.5.1PL2 Copyright (c) Steve Scherf et al.
# Submitted via: Collectorz.com_Music_Collector 6.11
#
DISCID=800c3f0b
DTITLE=Johnny Copeland - Jungle Swing
DYEAR=1995
DGENRE=Blues
TTITLE0=Ready, Willing, And Able
TTITLE1=The Jungle
TTITLE2=Blues Ain't Nothing
TTITLE3=Kasavubu
TTITLE4=Hold On To What You Got
TTITLE5=Monkey On My Back
TTITLE6=We Love Walking On The Wild Side
TTITLE7=Willie Dixon - Leonard Gaston - Jungle Swing
TTITLE8=Same Thing
TTITLE9=Abidjan
TTITLE10=I Got A Love
EXTD=
EXTT0=
EXTT1=
EXTT2=
EXTT3=
EXTT4=
EXTT5=
EXTT6=
EXTT7=
EXTT8=
EXTT9=
EXTT10=
PLAYORDER=
